<svg width="642" height="473" viewBox="0 0 642 473" fill="none" xmlns="http://www.w3.org/2000/svg">
<g clip-path="url(#clip0_1858_2327)">
<path d="M577.617 440.651H535.135V440.972H577.617V440.651Z" fill="#EBEBEB"/>
<path d="M425.389 444.14H414.242V444.46H425.389V444.14Z" fill="#EBEBEB"/>
<path d="M533.853 428.748H509.238V429.068H533.853V428.748Z" fill="#EBEBEB"/>
<path d="M123.231 430.902H67.832V431.223H123.231V430.902Z" fill="#EBEBEB"/>
<path d="M142.78 430.902H134.66V431.223H142.78V430.902Z" fill="#EBEBEB"/>
<path d="M289.335 436.316H169.174V436.636H289.335V436.316Z" fill="#EBEBEB"/>
<path d="M304.549 362.805H56.8768C52.8364 362.805 49.5527 359.522 49.5527 355.481V7.32409C49.5527 3.28365 52.8364 0 56.8768 0H304.562C308.602 0 311.886 3.28365 311.886 7.32409V355.481C311.873 359.522 308.589 362.805 304.549 362.805ZM56.8768 0.320669C53.016 0.320669 49.8734 3.46323 49.8734 7.32409V355.481C49.8734 359.342 53.016 362.485 56.8768 362.485H304.562C308.423 362.485 311.565 359.342 311.565 355.481V7.32409C311.565 3.46323 308.423 0.320669 304.562 0.320669H56.8768Z" fill="#EBEBEB"/>
<path d="M581.991 362.805H334.306C330.266 362.805 326.982 359.522 326.982 355.481V7.32409C326.982 3.28365 330.266 0 334.306 0H581.991C586.032 0 589.315 3.28365 589.315 7.32409V355.481C589.315 359.522 586.032 362.805 581.991 362.805ZM334.306 0.320669C330.446 0.320669 327.303 3.46323 327.303 7.32409V355.481C327.303 359.342 330.446 362.485 334.306 362.485H581.991C585.852 362.485 588.995 359.342 588.995 355.481V7.32409C588.995 3.46323 585.852 0.320669 581.991 0.320669H334.306Z" fill="#EBEBEB"/>
<path d="M641.88 420.013H0.541016V420.333H641.88V420.013Z" fill="#EBEBEB"/>
<path d="M276.651 59.9138C273.457 59.9138 270.879 62.492 270.879 65.6859V75.7292H282.423V65.6859C282.423 62.5048 279.845 59.9138 276.651 59.9138ZM276.651 68.3667C275.65 68.3667 274.83 67.5586 274.83 66.5453C274.83 65.5448 275.638 64.7239 276.651 64.7239C277.664 64.7239 278.472 65.5319 278.472 66.5453C278.472 67.5457 277.651 68.3667 276.651 68.3667Z" fill="#E0E0E0"/>
<path d="M513.948 59.9138C510.754 59.9138 508.176 62.492 508.176 65.6859V75.7292H519.72V65.6859C519.72 62.5048 517.142 59.9138 513.948 59.9138ZM513.948 68.3667C512.947 68.3667 512.126 67.5586 512.126 66.5453C512.126 65.5448 512.935 64.7239 513.948 64.7239C514.961 64.7239 515.769 65.5319 515.769 66.5453C515.769 67.5457 514.948 68.3667 513.948 68.3667Z" fill="#E0E0E0"/>
<path d="M546.602 71.894H243.98V245.453H546.602V71.894Z" fill="#EBEBEB"/>
<path d="M538.266 80.2314H252.318V237.116H538.266V80.2314Z" fill="#F5F5F5"/>
<path d="M552.221 239.566H238.389V252.752H552.221V239.566Z" fill="#F0F0F0"/>
<path d="M340.464 107.809H339.182H286.592V122.56V123.842V137.311V138.593V152.061V153.344V166.812V168.095V181.563V182.846V197.596H301.343H302.625H339.182H340.464H380.073H381.356H420.965H422.248H461.857H463.139H504.031V182.846V181.563V168.095V166.812V153.344V152.061V138.593V137.311V123.842V122.56V107.809H340.464ZM461.844 152.061H422.235V138.593H461.844V152.061ZM461.844 166.812H422.235V153.344H461.844V166.812ZM461.844 181.563H422.235V168.095H461.844V181.563ZM302.625 168.095H339.182V181.563H302.625V168.095ZM302.625 153.344H339.182V166.812H302.625V153.344ZM302.625 138.593H339.182V152.061H302.625V138.593ZM302.625 123.842H339.182V137.311H302.625V123.842ZM420.952 152.061H381.343V138.593H420.952V152.061ZM420.952 166.812H381.343V153.344H420.952V166.812ZM340.464 153.344H380.073V166.812H340.464V153.344ZM380.073 152.061H340.464V138.593H380.073V152.061ZM340.464 168.095H380.073V181.563H340.464V168.095ZM381.356 168.095H420.965V181.563H381.356V168.095ZM420.952 137.311H381.343H380.06H340.451V123.842H420.939V137.311H420.952ZM287.874 109.092H339.182V122.56H302.625H301.343H287.874V109.092ZM287.874 123.842H301.343V137.311H287.874V123.842ZM287.874 138.593H301.343V152.061H287.874V138.593ZM287.874 153.344H301.343V166.812H287.874V153.344ZM287.874 168.095H301.343V181.563H287.874V168.095ZM301.343 196.314H287.874V182.846H301.343V196.314ZM339.182 196.314H302.625V182.846H339.182V196.314ZM380.073 196.314H340.464V182.846H380.073V196.314ZM420.952 196.314H381.343V182.846H420.952V196.314ZM461.844 196.314H422.235V182.846H461.844V196.314ZM502.723 196.314H463.114V182.846H502.723V196.314ZM502.723 181.563H463.114V168.095H502.723V181.563ZM502.723 166.812H463.114V153.344H502.723V166.812ZM502.723 152.061H463.114V138.593H502.723V152.061ZM502.723 137.311H463.114H461.831H422.222V123.842H502.71V137.311H502.723ZM422.235 122.56H420.952H340.464V109.092H502.723V122.56H422.235Z" fill="#E0E0E0"/>
<path d="M115.97 178.138H87.1094V420.538H115.97V178.138Z" fill="#E0E0E0"/>
<path d="M193.826 178.138H112.812V420.538H193.826V178.138Z" fill="#EBEBEB"/>
<path d="M185.58 186.399H121.074V250.905H185.58V186.399Z" fill="#FAFAFA"/>
<path d="M170.779 224.353H135.878C134.903 224.353 134.107 223.558 134.107 222.583C134.107 221.608 134.903 220.813 135.878 220.813H170.779C171.754 220.813 172.549 221.608 172.549 222.583C172.549 223.558 171.754 224.353 170.779 224.353Z" fill="#E0E0E0"/>
<path d="M170.779 231.433H135.878C134.903 231.433 134.107 230.638 134.107 229.663C134.107 228.688 134.903 227.893 135.878 227.893H170.779C171.754 227.893 172.549 228.688 172.549 229.663C172.549 230.651 171.754 231.433 170.779 231.433Z" fill="#E0E0E0"/>
<path d="M170.779 238.526H135.878C134.903 238.526 134.107 237.731 134.107 236.756C134.107 235.781 134.903 234.986 135.878 234.986H170.779C171.754 234.986 172.549 235.781 172.549 236.756C172.549 237.731 171.754 238.526 170.779 238.526Z" fill="#E0E0E0"/>
<path d="M160.196 211.257H146.458L142.828 207.627V199.892L146.458 196.262H160.196L163.826 199.892V207.627L160.196 211.257Z" fill="#EBEBEB"/>
<path d="M185.58 257.074H121.074V321.58H185.58V257.074Z" fill="#FAFAFA"/>
<path d="M170.779 295.028H135.878C134.903 295.028 134.107 294.233 134.107 293.258C134.107 292.283 134.903 291.488 135.878 291.488H170.779C171.754 291.488 172.549 292.283 172.549 293.258C172.549 294.233 171.754 295.028 170.779 295.028Z" fill="#E0E0E0"/>
<path d="M170.779 302.122H135.878C134.903 302.122 134.107 301.326 134.107 300.352C134.107 299.377 134.903 298.582 135.878 298.582H170.779C171.754 298.582 172.549 299.377 172.549 300.352C172.549 301.326 171.754 302.122 170.779 302.122Z" fill="#E0E0E0"/>
<path d="M170.779 309.215H135.878C134.903 309.215 134.107 308.42 134.107 307.445C134.107 306.47 134.903 305.675 135.878 305.675H170.779C171.754 305.675 172.549 306.47 172.549 307.445C172.549 308.42 171.754 309.215 170.779 309.215Z" fill="#E0E0E0"/>
<path d="M160.196 281.945H146.458L142.828 278.315V270.568L146.458 266.951H160.196L163.826 270.568V278.315L160.196 281.945Z" fill="#EBEBEB"/>
<path d="M185.58 327.762H121.074V392.268H185.58V327.762Z" fill="#FAFAFA"/>
<path d="M170.779 365.717H135.878C134.903 365.717 134.107 364.921 134.107 363.947C134.107 362.972 134.903 362.177 135.878 362.177H170.779C171.754 362.177 172.549 362.972 172.549 363.947C172.549 364.921 171.754 365.717 170.779 365.717Z" fill="#E0E0E0"/>
<path d="M170.779 372.797H135.878C134.903 372.797 134.107 372.002 134.107 371.027C134.107 370.052 134.903 369.257 135.878 369.257H170.779C171.754 369.257 172.549 370.052 172.549 371.027C172.549 372.015 171.754 372.797 170.779 372.797Z" fill="#E0E0E0"/>
<path d="M170.779 379.89H135.878C134.903 379.89 134.107 379.095 134.107 378.12C134.107 377.145 134.903 376.35 135.878 376.35H170.779C171.754 376.35 172.549 377.145 172.549 378.12C172.549 379.095 171.754 379.89 170.779 379.89Z" fill="#E0E0E0"/>
<path d="M160.196 352.621H146.458L142.828 349.003V341.256L146.458 337.626H160.196L163.826 341.256V349.003L160.196 352.621Z" fill="#EBEBEB"/>
<path d="M315.026 473C452.379 473 563.725 466.499 563.725 458.48C563.725 450.461 452.379 443.96 315.026 443.96C177.674 443.96 66.3281 450.461 66.3281 458.48C66.3281 466.499 177.674 473 315.026 473Z" fill="#F5F5F5"/>
<path d="M152.669 457.749L120.332 445.846L87.6498 457.762C86.521 458.172 85.3281 457.338 85.3281 456.133C85.3281 455.453 85.7129 454.85 86.3286 454.568L120.332 438.791L153.99 454.568C154.593 454.85 154.99 455.466 154.99 456.133C155.003 457.326 153.797 458.159 152.669 457.749Z" fill="#263238"/>
<path opacity="0.3" d="M152.669 457.749L120.332 445.846L87.6498 457.762C86.521 458.172 85.3281 457.338 85.3281 456.133C85.3281 455.453 85.7129 454.85 86.3286 454.568L120.332 438.791L153.99 454.568C154.593 454.85 154.99 455.466 154.99 456.133C155.003 457.326 153.797 458.159 152.669 457.749Z" fill="white"/>
<path opacity="0.2" d="M112.725 448.616L120.344 445.846L127.616 448.514V442.19L120.344 438.791L112.725 442.318V448.616Z" fill="black"/>
<path d="M120.166 458.018C118.691 458.018 117.446 456.889 117.305 455.414L116.395 445.833V366.281H123.937V445.833L123.026 455.414C122.885 456.902 121.654 458.018 120.166 458.018Z" fill="#263238"/>
<path opacity="0.3" d="M120.166 458.018C118.691 458.018 117.446 456.889 117.305 455.414L116.395 445.833V366.281H123.937V445.833L123.026 455.414C122.885 456.902 121.654 458.018 120.166 458.018Z" fill="white"/>
<path opacity="0.2" d="M123.937 366.294H116.395V375.555H123.937V366.294Z" fill="black"/>
<path d="M103.255 284.344C104.333 284.318 105.423 284.805 106.141 286.011C119.956 308.984 124.856 336.587 120.097 362.933C119.802 364.588 118.673 365.357 117.416 365.434C115.325 365.576 78.1021 365.447 76.7553 365.447C74.7287 365.447 72.4968 363.716 72.9714 361.086C77.3966 336.613 72.5225 310.818 59.7213 289.526C58.1308 286.883 60.4781 284.395 62.8511 284.356C63.9157 284.318 100.882 284.382 103.255 284.344Z" fill="#0F34CB"/>
<path opacity="0.2" d="M103.255 284.344C104.333 284.318 105.423 284.805 106.141 286.011C119.956 308.984 124.856 336.587 120.097 362.933C119.802 364.588 118.673 365.357 117.416 365.434C115.325 365.576 78.1021 365.447 76.7553 365.447C74.7287 365.447 72.4968 363.716 72.9714 361.086C77.3966 336.613 72.5225 310.818 59.7213 289.526C58.1308 286.883 60.4781 284.395 62.8511 284.356C63.9157 284.318 100.882 284.382 103.255 284.344Z" fill="black"/>
<path d="M72.9599 361.073C77.3851 336.6 72.511 310.805 59.7099 289.513C57.401 285.665 63.4168 282.163 65.7256 285.998C79.54 308.971 84.4399 336.574 79.6811 362.92C78.8859 367.32 72.1646 365.46 72.9599 361.073Z" fill="#0F34CB"/>
<g opacity="0.1">
<path d="M72.9599 361.073C77.3851 336.6 72.511 310.805 59.7099 289.513C57.401 285.665 63.4168 282.163 65.7256 285.998C79.54 308.971 84.4399 336.574 79.6811 362.92C78.8859 367.32 72.1646 365.46 72.9599 361.073Z" fill="white"/>
</g>
<path d="M189.028 359.047C180.498 356.866 171.724 355.673 162.938 355.455C153.882 355.224 119.968 355.417 111.913 355.417C102.113 355.417 92.3137 356.622 82.7962 359.047C76.819 360.573 78.666 369.205 84.0661 369.295C84.5407 369.308 187.052 369.27 187.437 369.295C193.068 369.552 195.133 360.611 189.028 359.047Z" fill="#0F34CB"/>
<path opacity="0.3" d="M189.028 359.047C180.498 356.866 171.724 355.673 162.938 355.455C153.882 355.224 119.968 355.417 111.913 355.417C102.113 355.417 92.3137 356.622 82.7962 359.047C76.819 360.573 78.666 369.205 84.0661 369.295C84.5407 369.308 187.052 369.27 187.437 369.295C193.068 369.552 195.133 360.611 189.028 359.047Z" fill="black"/>
<path d="M85.5676 369.116C102.794 364.729 121.034 364.729 138.247 369.116C144.763 370.783 147.547 360.714 141.018 359.047C121.996 354.198 101.806 354.198 82.7842 359.047C76.281 360.714 79.0388 370.783 85.5676 369.116Z" fill="#0F34CB"/>
<g opacity="0.3">
<path d="M85.5676 369.116C102.794 364.729 121.034 364.729 138.247 369.116C144.763 370.783 147.547 360.714 141.018 359.047C121.996 354.198 101.806 354.198 82.7842 359.047C76.281 360.714 79.0388 370.783 85.5676 369.116Z" fill="white"/>
</g>
<path d="M179.941 304.533L191.742 304.033L195.269 301.775C196.103 301.236 197.116 301.07 198.078 301.313L200.605 301.942C201.926 302.275 203.325 301.826 204.21 300.787C205.698 299.043 205.21 296.375 203.196 295.285L199.361 293.207C198.13 292.54 196.629 292.642 195.5 293.476L189.305 298.068L179.941 297.414V304.533Z" fill="#EBB376"/>
<path d="M167.179 258.857L163.113 294.81L186.06 296.439L185.047 304.687C185.047 304.687 161.843 308.753 153.339 306.432C144.835 304.11 156.161 265.245 156.161 265.245L167.179 258.857Z" fill="#0F34CB"/>
<path opacity="0.2" d="M167.179 258.857L163.113 294.81L186.06 296.439L185.047 304.687C185.047 304.687 161.843 308.753 153.339 306.432C144.835 304.11 156.161 265.245 156.161 265.245L167.179 258.857Z" fill="white"/>
<path opacity="0.1" d="M159.818 303.161C153.828 300.044 161.87 270.145 164.705 260.281L156.162 265.232C156.162 265.232 144.824 304.097 153.341 306.419C158.574 307.842 169.348 306.855 176.878 305.893C171.734 305.893 164.23 305.457 159.818 303.161Z" fill="black"/>
<path d="M146.871 329.045C146.871 329.045 123.282 334.073 95.4355 331.944C95.4355 331.944 99.3862 285.96 113.393 260.794C115.625 256.779 119.345 253.778 123.731 252.418C133.788 249.288 149.962 246.479 167.176 258.857C167.176 258.857 158.466 275.096 146.871 329.045Z" fill="#0F34CB"/>
<path opacity="0.4" d="M146.871 329.045C146.871 329.045 123.282 334.073 95.4355 331.944C95.4355 331.944 99.3862 285.96 113.393 260.794C115.625 256.779 119.345 253.778 123.731 252.418C133.788 249.288 149.962 246.479 167.176 258.857C167.176 258.857 158.466 275.096 146.871 329.045Z" fill="white"/>
<path d="M155.235 270.311C155.235 271.068 154.62 271.697 153.85 271.697C153.093 271.697 152.465 271.081 152.465 270.311C152.465 269.555 153.081 268.926 153.85 268.926C154.62 268.926 155.235 269.542 155.235 270.311Z" fill="#0F34CB"/>
<path d="M150.362 284.421C150.362 285.178 149.747 285.806 148.977 285.806C148.207 285.806 147.592 285.19 147.592 284.421C147.592 283.664 148.207 283.036 148.977 283.036C149.747 283.036 150.362 283.664 150.362 284.421Z" fill="#0F34CB"/>
<path d="M144.551 304.546C145.316 304.546 145.937 303.926 145.937 303.161C145.937 302.396 145.316 301.776 144.551 301.776C143.786 301.776 143.166 302.396 143.166 303.161C143.166 303.926 143.786 304.546 144.551 304.546Z" fill="#0F34CB"/>
<path d="M142.294 318.745C142.294 319.502 141.678 320.131 140.909 320.131C140.152 320.131 139.523 319.515 139.523 318.745C139.523 317.976 140.139 317.36 140.909 317.36C141.666 317.36 142.294 317.988 142.294 318.745Z" fill="#0F34CB"/>
<path opacity="0.1" d="M156.943 288.089L139.524 292.014L125.786 288.243L120.374 272.774L119.219 264.078H115.358C115.358 264.078 111.69 291.783 124.247 303.161C132.084 310.254 144.886 305.636 153.403 301.147C154.647 296.311 155.827 291.963 156.943 288.089Z" fill="black"/>
<path d="M168.219 412.676L162.178 438.983L169.681 441.882L180.482 415.421L168.219 412.676Z" fill="#EBB376"/>
<path d="M169.244 440.164L162.433 436.521C162.138 436.367 161.766 436.431 161.548 436.688L156.687 442.318C156.251 442.819 156.302 443.575 156.802 443.999C156.866 444.05 156.931 444.101 157.007 444.14C159.868 445.615 162.472 446.821 165.999 448.719C170.155 450.964 168.834 450.887 173.695 453.593C176.62 455.222 178.967 452.157 177.813 451.323C172.477 447.526 171.771 444.884 170.668 441.651C170.373 441.01 169.873 440.471 169.244 440.164Z" fill="#263238"/>
<path d="M107.43 331.072L144.269 329.045C144.269 329.045 205.465 338.614 204.593 355.725C203.721 372.836 178.786 426.785 178.786 426.785L164.176 422.719C164.176 422.719 175.297 368.487 182.557 359.496C182.557 359.496 136.855 354.134 125.414 351.082C119.116 349.401 103.941 352.249 107.43 331.072Z" fill="#263238"/>
<path opacity="0.2" d="M176.364 358.752C176.531 355.302 176.185 349.914 173.555 343.976C170.156 336.292 142.142 331.675 128.738 329.892L107.433 331.072C103.957 352.249 119.118 349.401 125.416 351.082C134.241 353.442 163.486 357.174 176.364 358.752Z" fill="black"/>
<path d="M143.191 419.923L142.229 446.897L150.348 447.282L155.748 420.308L143.191 419.923Z" fill="#EBB376"/>
<path d="M149.775 444.832L141.912 444.999C141.566 444.999 141.271 445.243 141.207 445.589L139.693 453.016C139.552 453.67 139.975 454.324 140.63 454.453C140.719 454.465 140.796 454.478 140.886 454.478C144.157 454.363 147.069 454.132 151.147 454.055C155.958 453.965 154.752 454.568 160.408 454.542C163.82 454.53 164.372 450.643 162.922 450.476C156.291 449.758 154.341 447.783 151.75 445.461C151.199 445.012 150.493 444.781 149.775 444.832Z" fill="#263238"/>
<path d="M117.282 331.072C117.282 331.072 166.588 332.816 169.487 347.9C172.386 362.985 155.852 430.556 155.852 430.556H141.063C141.063 430.556 142.807 369.937 147.733 357.174C147.733 357.174 107.123 363.549 96.4001 354.339C88.7297 347.746 97.8495 331.072 97.8495 331.072H117.282Z" fill="#263238"/>
<path d="M163.011 419.538L181.392 424.656L178.031 431.723L161.279 427.555L163.011 419.538Z" fill="#263238"/>
<path opacity="0.3" d="M163.011 419.538L181.392 424.656L178.031 431.723L161.279 427.555L163.011 419.538Z" fill="black"/>
<path d="M162.15 283.023L176.85 278.187L186.252 282.381C187.15 282.779 187.778 283.587 187.958 284.549L188.958 289.898C189.292 291.719 187.894 293.412 186.034 293.412C185.341 293.412 184.674 293.169 184.148 292.732L175.888 285.909L163.023 291.091L162.15 283.023Z" fill="#EBB376"/>
<path d="M139.615 426.785L158.188 427.657L156.444 435.045L139.615 434.186V426.785Z" fill="#263238"/>
<path opacity="0.3" d="M139.615 426.785L158.188 427.657L156.444 435.045L139.615 434.186V426.785Z" fill="black"/>
<path d="M116.322 258.857C119.183 254.573 123.736 250.096 135.268 287.858L169.836 279.354L170.849 288.782C170.849 288.782 142.617 303.905 131.304 301.776C119.991 299.646 108.46 270.632 116.322 258.857Z" fill="#0F34CB"/>
<path opacity="0.2" d="M116.322 258.857C119.183 254.573 123.736 250.096 135.268 287.858L169.836 279.354L170.849 288.782C170.849 288.782 142.617 303.905 131.304 301.776C119.991 299.646 108.46 270.632 116.322 258.857Z" fill="white"/>
<path d="M152.479 245.71L145.938 251.854C145.938 251.854 148.49 259.819 155.032 259.819C161.573 259.819 157.61 249.737 157.61 249.737L152.479 245.71Z" fill="#EBB376"/>
<path d="M155.941 264.437L159.135 262.769L160.469 260.743L159.905 254.457C153.992 251.52 148.309 250.199 143.05 249.84L142.807 252.764L146.36 263.064L150.49 264.437H155.941Z" fill="#EBB376"/>
<path opacity="0.1" d="M157.596 249.737L152.466 245.71L151.606 246.518C151.106 249.519 150.529 255.753 153.851 258.203C155.172 259.178 156.442 259.293 157.571 258.973C160.277 256.561 157.596 249.737 157.596 249.737Z" fill="black"/>
<path d="M154.121 265.232L159.047 267.849C162.51 263.731 161.651 257.959 160.855 254.945C160.278 254.637 159.701 254.355 159.124 254.073C159.778 258.626 159.252 263.629 153.839 263.783C145.322 264.026 144.052 253.149 143.873 249.904C143.257 249.853 142.641 249.814 142.039 249.789C139.332 261.833 146.887 267.849 146.887 267.849L154.121 265.232Z" fill="#0F34CB"/>
<path opacity="0.2" d="M154.121 265.232L159.047 267.849C162.51 263.731 161.651 257.959 160.855 254.945C160.278 254.637 159.701 254.355 159.124 254.073C159.778 258.626 159.252 263.629 153.839 263.783C145.322 264.026 144.052 253.149 143.873 249.904C143.257 249.853 142.641 249.814 142.039 249.789C139.332 261.833 146.887 267.849 146.887 267.849L154.121 265.232Z" fill="white"/>
<path d="M175.157 230.472C179.852 233.512 178.454 241.131 173.567 244.26C172.182 235.525 175.157 230.472 175.157 230.472Z" fill="#263238"/>
<path opacity="0.4" d="M175.157 230.472C179.852 233.512 178.454 241.131 173.567 244.26C172.182 235.525 175.157 230.472 175.157 230.472Z" fill="black"/>
<path d="M153.659 235.474C151.902 243.504 150.452 248.108 153.235 253.419C155.916 258.678 162.343 260.768 167.601 258.088C169.538 257.1 171.129 255.548 172.155 253.637C175.849 247.108 178.119 235.063 171.385 229.471C166.896 225.533 160.072 225.982 156.134 230.459C154.89 231.895 154.031 233.627 153.659 235.474Z" fill="#EBB376"/>
<path d="M152.814 242.977C157.111 245.171 159.869 237.642 159.279 234.012C164.858 237.834 177.403 237.282 181.071 232.177C185.086 226.598 179.058 221.877 173.606 220.184C172.093 219.71 170.669 220.762 170.284 222.301C170.22 222.57 170.079 222.788 169.886 222.929C169.886 222.929 168.347 221.518 166.154 220.3C164.268 219.248 162.062 219.851 160.472 221.3C159.843 221.877 158.291 222.006 155.187 220.954C148.748 218.773 147.658 225.79 150.787 227.136C147.953 228.868 143.271 233.627 145.798 237.808C148.325 241.99 150.492 247.505 149.081 248.429C150.39 249.006 152.711 247.608 152.814 242.977Z" fill="#263238"/>
<path d="M148.799 241.182C148.837 243.016 149.556 244.773 150.838 246.095C152.519 247.813 154.456 246.518 154.892 244.26C155.289 242.208 154.879 238.86 152.737 238.001C150.607 237.154 148.786 238.912 148.799 241.182Z" fill="#EBB376"/>
<path d="M164.842 241.502C164.65 242.144 164.855 242.759 165.278 242.862C165.702 242.965 166.176 242.58 166.356 241.951C166.548 241.31 166.356 240.682 165.907 240.592C165.483 240.489 165.022 240.861 164.842 241.502Z" fill="#263238"/>
<path d="M172.014 243.824C171.822 244.465 172.014 245.081 172.45 245.184C172.886 245.286 173.348 244.901 173.54 244.26C173.733 243.619 173.528 243.003 173.091 242.888C172.655 242.785 172.206 243.17 172.014 243.824Z" fill="#263238"/>
<path d="M169.641 243.401C169.846 245.607 170.334 247.788 171.103 249.865C169.692 250.558 167.896 249.493 167.896 249.493L169.641 243.401Z" fill="#D58745"/>
<path d="M163.303 238.45C163.238 238.437 163.187 238.411 163.136 238.373C163.008 238.206 163.033 237.962 163.2 237.834L163.213 237.821C164.2 237.039 165.522 236.808 166.727 237.193C166.933 237.27 167.022 237.488 166.945 237.693V237.706C166.868 237.898 166.65 238.001 166.445 237.924H166.432C165.496 237.629 164.483 237.808 163.7 238.411C163.585 238.488 163.431 238.501 163.303 238.45Z" fill="#263238"/>
<path d="M175.799 242.31C175.683 242.259 175.593 242.144 175.58 242.015C175.439 241.002 174.836 240.13 173.951 239.617C173.772 239.489 173.733 239.245 173.849 239.065C173.951 238.924 174.118 238.86 174.285 238.911C175.401 239.527 176.158 240.617 176.337 241.874C176.376 242.08 176.235 242.285 176.029 242.323C176.029 242.323 176.029 242.323 176.017 242.323C175.952 242.362 175.875 242.349 175.799 242.31Z" fill="#263238"/>
<path d="M164.279 251.623C164.638 251.725 164.997 251.802 165.369 251.841C165.485 251.867 165.6 251.777 165.626 251.661C165.626 251.661 165.626 251.661 165.626 251.648C165.638 251.52 165.549 251.418 165.42 251.405C163.535 251.2 161.842 250.122 160.893 248.48C160.841 248.365 160.713 248.326 160.598 248.378C160.482 248.429 160.444 248.557 160.495 248.673C161.303 250.135 162.676 251.2 164.279 251.623Z" fill="#263238"/>
<path d="M151.821 227.444C151.821 227.444 149.089 226.995 148.037 223.763C147.794 223.019 146.742 222.955 146.408 223.66C145.318 225.982 144.818 229.176 151.821 227.444Z" fill="#2E353A"/>
<path d="M206.03 237.257H202.349C199.167 237.257 196.358 239.835 196.076 243.016L192.882 278.944C192.6 282.125 194.947 284.703 198.129 284.703H201.81L206.03 237.257Z" fill="#0F34CB"/>
<path opacity="0.3" d="M206.03 237.257H202.349C199.167 237.257 196.358 239.835 196.076 243.016L192.882 278.944C192.6 282.125 194.947 284.703 198.129 284.703H201.81L206.03 237.257Z" fill="white"/>
<path d="M260.648 284.716H200.644C197.463 284.716 195.116 282.138 195.398 278.957L198.592 243.029C198.874 239.848 201.683 237.27 204.864 237.27H264.868C268.049 237.27 270.396 239.848 270.114 243.029L266.92 278.957C266.638 282.138 263.829 284.716 260.648 284.716Z" fill="#0F34CB"/>
<path opacity="0.2" d="M260.648 284.716H200.644C197.463 284.716 195.116 282.138 195.398 278.957L198.592 243.029C198.874 239.848 201.683 237.27 204.864 237.27H264.868C268.049 237.27 270.396 239.848 270.114 243.029L266.92 278.957C266.638 282.138 263.829 284.716 260.648 284.716Z" fill="black"/>
<path opacity="0.5" d="M233.814 257.497C233.814 257.189 233.866 256.894 233.943 256.612C233.558 256.51 233.173 256.433 232.75 256.433C230.236 256.433 228.209 258.472 228.209 260.973C228.209 263.487 230.248 265.514 232.75 265.514C235.264 265.514 237.29 263.475 237.29 260.973C235.379 260.986 233.814 259.421 233.814 257.497Z" fill="white"/>
<path d="M230.015 301.942H234.633L232.812 281.047C232.709 279.854 231.708 278.944 230.515 278.944C229.169 278.944 228.104 280.098 228.22 281.445L230.015 301.942Z" fill="#263238"/>
<path opacity="0.3" d="M230.015 301.942H234.633L232.812 281.047C232.709 279.854 231.708 278.944 230.515 278.944C229.169 278.944 228.104 280.098 228.22 281.445L230.015 301.942Z" fill="white"/>
<path d="M244.6 307.996C244.6 301.301 239.174 295.888 232.491 295.888C225.796 295.888 220.383 301.314 220.383 307.996H244.6Z" fill="#0F34CB"/>
<path opacity="0.5" d="M244.6 307.996C244.6 301.301 239.174 295.888 232.491 295.888C225.796 295.888 220.383 301.314 220.383 307.996H244.6Z" fill="white"/>
<path d="M216.139 307.996H197.002C195.745 307.996 194.719 306.97 194.719 305.713C194.719 304.456 195.745 303.43 197.002 303.43H216.139C217.396 303.43 218.423 304.456 218.423 305.713C218.423 306.97 217.396 307.996 216.139 307.996Z" fill="#0F34CB"/>
<path opacity="0.3" d="M216.139 307.996H197.002C195.745 307.996 194.719 306.97 194.719 305.713C194.719 304.456 195.745 303.43 197.002 303.43H216.139C217.396 303.43 218.423 304.456 218.423 305.713C218.423 306.97 217.396 307.996 216.139 307.996Z" fill="white"/>
<path d="M198.182 307.996H179.045C177.788 307.996 176.762 306.97 176.762 305.713C176.762 304.456 177.788 303.43 179.045 303.43H198.182C199.439 303.43 200.466 304.456 200.466 305.713C200.478 306.97 199.452 307.996 198.182 307.996Z" fill="#0F34CB"/>
<path opacity="0.5" d="M198.182 307.996H179.045C177.788 307.996 176.762 306.97 176.762 305.713C176.762 304.456 177.788 303.43 179.045 303.43H198.182C199.439 303.43 200.466 304.456 200.466 305.713C200.478 306.97 199.452 307.996 198.182 307.996Z" fill="white"/>
<path d="M358.297 284.613C357.219 284.587 356.129 285.075 355.411 286.281C341.596 309.253 336.697 336.856 341.455 363.203C341.75 364.857 342.879 365.627 344.136 365.704C346.227 365.845 383.45 365.717 384.797 365.717C386.824 365.717 389.055 363.985 388.581 361.356C384.156 336.882 389.03 311.087 401.831 289.795C403.421 287.153 401.074 284.664 398.701 284.626C397.624 284.6 360.67 284.664 358.297 284.613Z" fill="#0F34CB"/>
<path opacity="0.2" d="M358.297 284.613C357.219 284.587 356.129 285.075 355.411 286.281C341.596 309.253 336.697 336.856 341.455 363.203C341.75 364.857 342.879 365.627 344.136 365.704C346.227 365.845 383.45 365.717 384.797 365.717C386.824 365.717 389.055 363.985 388.581 361.356C384.156 336.882 389.03 311.087 401.831 289.795C403.421 287.153 401.074 284.664 398.701 284.626C397.624 284.6 360.67 284.664 358.297 284.613Z" fill="black"/>
<path d="M388.577 361.343C384.152 336.869 389.026 311.075 401.827 289.782C404.136 285.934 398.12 282.433 395.811 286.268C381.997 309.241 377.097 336.844 381.856 363.19C382.664 367.602 389.372 365.73 388.577 361.343Z" fill="#0F34CB"/>
<g opacity="0.2">
<path d="M388.577 361.343C384.152 336.869 389.026 311.075 401.827 289.782C404.136 285.934 398.12 282.433 395.811 286.268C381.997 309.241 377.097 336.844 381.856 363.19C382.664 367.602 389.372 365.73 388.577 361.343Z" fill="white"/>
</g>
<path d="M365.76 458.031L333.424 446.128L300.742 458.044C299.613 458.455 298.42 457.621 298.42 456.415C298.42 455.748 298.805 455.132 299.42 454.85L333.424 439.073L367.082 454.85C367.685 455.132 368.082 455.748 368.082 456.415C368.082 457.608 366.889 458.442 365.76 458.031Z" fill="#263238"/>
<path opacity="0.3" d="M365.76 458.031L333.424 446.128L300.742 458.044C299.613 458.455 298.42 457.621 298.42 456.415C298.42 455.748 298.805 455.132 299.42 454.85L333.424 439.073L367.082 454.85C367.685 455.132 368.082 455.748 368.082 456.415C368.082 457.608 366.889 458.442 365.76 458.031Z" fill="white"/>
<path opacity="0.2" d="M325.816 448.899L333.436 446.115L340.695 448.796V442.472L333.436 439.06L325.816 442.601V448.899Z" fill="black"/>
<path d="M333.257 458.301C331.782 458.301 330.538 457.172 330.397 455.697L329.486 446.115V366.563H337.028V446.115L336.118 455.697C335.977 457.172 334.732 458.301 333.257 458.301Z" fill="#263238"/>
<path opacity="0.3" d="M333.257 458.301C331.782 458.301 330.538 457.172 330.397 455.697L329.486 446.115V366.563H337.028V446.115L336.118 455.697C335.977 457.172 334.732 458.301 333.257 458.301Z" fill="white"/>
<path opacity="0.2" d="M337.028 366.576H329.486V375.837H337.028V366.576Z" fill="black"/>
<path d="M273.683 359.329C282.213 357.149 290.987 355.956 299.773 355.738C308.829 355.507 342.743 355.699 350.798 355.699C360.598 355.699 370.397 356.905 379.915 359.329C385.892 360.856 384.045 369.488 378.645 369.578C378.17 369.591 275.659 369.552 275.274 369.578C269.63 369.834 267.578 360.894 273.683 359.329Z" fill="#0F34CB"/>
<path opacity="0.3" d="M273.683 359.329C282.213 357.149 290.987 355.956 299.773 355.738C308.829 355.507 342.743 355.699 350.798 355.699C360.598 355.699 370.397 356.905 379.915 359.329C385.892 360.856 384.045 369.488 378.645 369.578C378.17 369.591 275.659 369.552 275.274 369.578C269.63 369.834 267.578 360.894 273.683 359.329Z" fill="black"/>
<path d="M377.141 369.398C359.915 365.011 341.675 365.011 324.462 369.398C317.946 371.066 315.175 360.997 321.691 359.329C340.713 354.481 360.902 354.481 379.924 359.329C386.415 360.997 383.657 371.066 377.141 369.398Z" fill="#0F34CB"/>
<g opacity="0.3">
<path d="M377.141 369.398C359.915 365.011 341.675 365.011 324.462 369.398C317.946 371.066 315.175 360.997 321.691 359.329C340.713 354.481 360.902 354.481 379.924 359.329C386.415 360.997 383.657 371.066 377.141 369.398Z" fill="white"/>
</g>
<path d="M327.418 241.875C327.418 241.875 321.107 241.259 323.07 231.882C325.032 222.506 324.866 213.604 338.795 214.618C338.795 214.618 349.826 211.86 352.943 222.224C356.06 232.588 360.691 239.938 353.302 242.99C344.067 246.8 341.733 238.321 341.733 238.321L328.226 239.63L327.418 241.875Z" fill="#263238"/>
<path d="M325.353 255.599C317.298 254.445 321.262 282.305 314.04 287.32C310.077 290.065 290.144 282.689 290.144 282.689L287.335 273.698C287.194 273.236 286.847 272.851 286.399 272.672L282.243 271.017C281.05 270.542 279.831 271.62 280.113 272.902L281.614 279.534C281.678 279.816 281.819 280.086 282.012 280.291L287.797 286.435C287.797 286.435 311.565 297.966 317.362 296.055C324.084 293.836 326.572 281.599 328.239 274.313C329.496 268.875 331.446 256.471 325.353 255.599Z" fill="#B97964"/>
<path d="M316.066 422.155L318.49 440.895L311.667 441.061L306.754 422.988L316.066 422.155Z" fill="#B97964"/>
<path d="M311.575 440.023L319.361 440.048C319.694 440.048 319.989 440.279 320.066 440.613L321.67 447.885C321.811 448.527 321.413 449.168 320.772 449.322C320.695 449.335 320.605 449.348 320.515 449.348C317.296 449.284 314.423 449.104 310.421 449.091C305.688 449.078 306.88 449.655 301.314 449.72C297.953 449.758 297.35 445.936 298.774 445.756C305.29 444.948 307.124 442.986 309.638 440.664C310.19 440.228 310.87 439.997 311.575 440.023Z" fill="#263238"/>
<path opacity="0.1" d="M309.601 433.481L306.754 422.988L316.066 422.155L317.464 432.98L309.601 433.481Z" fill="black"/>
<path d="M339.554 309.651H328.549C328.549 309.651 325.65 317.155 325.073 324.979C324.496 332.816 339.567 327.006 339.567 327.006L340.888 316.27L339.554 309.651Z" fill="#263238"/>
<path d="M269.376 396.193L262.116 417.37L256.023 415.626L260.962 393.294L269.376 396.193Z" fill="#B97964"/>
<path d="M256.139 413.997L263.63 416.254C263.951 416.344 264.182 416.639 264.169 416.973L263.899 424.412C263.874 425.079 263.322 425.592 262.668 425.567C262.578 425.567 262.501 425.554 262.412 425.528C259.307 424.656 256.575 423.758 252.702 422.758C248.122 421.565 249.136 422.411 243.736 421.077C240.478 420.269 240.85 416.434 242.273 416.601C248.777 417.447 251.085 415.729 254.113 414.1C254.728 413.843 255.459 413.792 256.139 413.997Z" fill="#263238"/>
<path opacity="0.1" d="M265.412 407.737L258.178 405.877L260.961 393.294L269.375 396.193L265.412 407.737Z" fill="black"/>
<path d="M361.511 308.651C361.511 308.651 372.722 327.403 370.798 343.065C368.861 358.726 354.38 367.012 298.686 340.333C298.686 340.333 287.257 352.159 268.312 402.812L258.641 399.913C258.641 399.913 269.569 341.359 279.33 324.697C289.194 307.868 332.51 327.596 335.794 324.312C338.718 321.387 336.178 309.805 336.178 309.805L361.511 308.651Z" fill="#263238"/>
<path d="M270.673 401.85L268.646 405.762L257.051 401.85V397.348L270.673 401.85Z" fill="#0F34CB"/>
<path d="M366.026 258.524L326.571 255.573C324.185 255.394 322.21 257.408 322.428 259.793C322.428 259.793 323.236 264.757 323.095 266.412C322.749 270.594 320.491 276.853 321.248 279.713C321.851 281.997 324.249 284.6 325.199 287.166C327.251 292.745 327.597 310.818 327.597 310.818C340.36 312.883 363.05 309.818 363.05 309.818C357.958 291.463 365.564 270.004 367.899 261.166C368.245 259.883 367.334 258.626 366.026 258.524Z" fill="#0F34CB"/>
<path opacity="0.7" d="M366.026 258.524L326.571 255.573C324.185 255.394 322.21 257.408 322.428 259.793C322.428 259.793 323.236 264.757 323.095 266.412C322.749 270.594 320.491 276.853 321.248 279.713C321.851 281.997 324.249 284.6 325.199 287.166C327.251 292.745 327.597 310.818 327.597 310.818C340.36 312.883 363.05 309.818 363.05 309.818C357.958 291.463 365.564 270.004 367.899 261.166C368.245 259.883 367.334 258.626 366.026 258.524Z" fill="white"/>
<path opacity="0.1" d="M360.151 280.188L346.516 294.144L327.083 298.056L326.955 298.081C327.135 300.236 327.263 302.378 327.366 304.29C332.753 304.277 350.313 303.905 355.366 299.505C357.88 297.312 359.958 294.041 361.536 290.963C361.78 287.756 362.203 284.613 362.742 281.612L360.151 280.188Z" fill="black"/>
<path opacity="0.2" d="M292.325 345.579L289.285 343.219C289.285 343.219 278.549 349.029 283.898 365.576C287.772 357.482 290.966 351.774 293.377 347.862L292.325 345.579Z" fill="black"/>
<path d="M338.833 355.738C328.713 353.313 315.604 348.452 298.673 340.333C298.673 340.333 285.602 340.512 284.743 350.222C283.871 359.945 306.792 427.132 306.792 427.132L317.374 426.208C317.374 426.208 311.141 359.214 309.691 355.725H338.833V355.738Z" fill="#263238"/>
<path opacity="0.2" d="M298.686 340.333C298.686 340.333 296.685 340.358 294.209 340.974C296.608 343.091 305.048 350.12 317.823 355.738H338.846C328.713 353.313 315.617 348.439 298.686 340.333Z" fill="black"/>
<path d="M318.644 424.476L318.926 428.825L306.6 429.787L304.855 425.657L318.644 424.476Z" fill="#0F34CB"/>
<path d="M347.401 240.156L338.794 248.621C340.244 255.573 335.139 256.227 335.139 256.227C335.139 256.227 335.549 258.677 341.796 258.344C348.042 258.01 350.082 257.343 350.082 257.343C346.311 254.329 346.85 245.184 347.401 240.156Z" fill="#B97964"/>
<path opacity="0.1" d="M338.874 252.521C339.105 251.507 339.13 250.238 338.797 248.609L346.48 241.066L347.237 241.939C347.224 241.939 345.685 251.546 338.874 252.521Z" fill="black"/>
<path d="M348.121 228.958C348.75 237.257 349.199 240.746 345.633 245.543C340.258 252.752 329.946 251.713 326.842 243.786C324.058 236.641 323.494 224.289 331.074 219.902C336.487 216.747 343.427 218.568 346.582 223.968C347.48 225.482 348.006 227.188 348.121 228.958Z" fill="#B97964"/>
<path d="M331.202 237.334C330.817 238.95 330.214 240.489 329.406 241.939C330.163 242.336 331.061 242.387 331.856 242.067L331.202 237.334Z" fill="#A24E3F"/>
<path d="M337.474 231.677C337.525 231.651 337.576 231.626 337.615 231.575C337.73 231.433 337.717 231.228 337.576 231.113C336.64 230.279 335.344 229.958 334.126 230.253C333.959 230.317 333.856 230.497 333.908 230.664C333.959 230.831 334.139 230.933 334.318 230.882C335.332 230.651 336.383 230.933 337.166 231.613C337.243 231.703 337.371 231.716 337.474 231.677Z" fill="#2E353A"/>
<path d="M325.225 232.819C325.277 232.793 325.328 232.767 325.366 232.716C326.033 231.934 327.034 231.51 328.06 231.587C328.24 231.613 328.406 231.498 328.445 231.318C328.47 231.138 328.342 230.972 328.163 230.946C326.918 230.843 325.687 231.344 324.866 232.293C324.738 232.421 324.738 232.639 324.879 232.755C324.969 232.844 325.097 232.87 325.225 232.819Z" fill="#2E353A"/>
<path d="M335.77 235.576C335.86 236.243 335.578 236.833 335.142 236.897C334.706 236.962 334.282 236.474 334.192 235.794C334.103 235.115 334.385 234.537 334.808 234.473C335.244 234.409 335.68 234.909 335.77 235.576Z" fill="#2E353A"/>
<path d="M328.202 236.628C328.291 237.295 328.009 237.885 327.586 237.949C327.15 238.013 326.727 237.526 326.624 236.846C326.521 236.166 326.816 235.589 327.24 235.525C327.676 235.461 328.125 235.948 328.202 236.628Z" fill="#2E353A"/>
<path d="M327.445 235.538L325.777 235.294C325.777 235.294 326.778 236.436 327.445 235.538Z" fill="#2E353A"/>
<path d="M335.013 234.486L333.346 234.242C333.346 234.242 334.346 235.384 335.013 234.486Z" fill="#2E353A"/>
<path d="M336.307 242.362C336.448 242.131 336.551 241.874 336.654 241.618C336.692 241.541 336.654 241.438 336.564 241.413C336.474 241.387 336.384 241.426 336.359 241.515C335.897 242.824 334.832 243.837 333.511 244.235C333.421 244.247 333.37 244.337 333.383 244.427C333.408 244.517 333.485 244.568 333.575 244.555C334.73 244.222 335.717 243.439 336.307 242.362Z" fill="#263238"/>
<path d="M341.733 216.875C336.41 215.554 330.895 218.337 330.895 218.337C330.895 218.337 324.725 223.814 326.149 229.112C326.149 229.112 326.854 228.509 328.317 228.073C328.24 226.636 328.355 224.122 329.881 222.442C329.881 222.442 329.291 225.328 330.074 227.701C331.921 227.47 334.422 227.56 337.693 228.599C337.693 228.599 338.758 226.405 337.693 221.634C337.693 221.634 339.745 224.828 339.822 229.753C339.899 234.679 346.197 235.872 346.197 235.872C346.197 235.872 350.161 235.448 350.109 230.151C350.071 224.853 347.056 218.196 341.733 216.875Z" fill="#263238"/>
<path d="M339.385 216.567C339.385 216.567 336.871 210.333 331.855 211.86C326.84 213.373 335.614 213.373 339.385 216.567Z" fill="#263238"/>
<path d="M350.968 235.192C350.724 236.782 349.852 238.206 348.557 239.155C346.825 240.399 345.234 239.027 345.093 237.013C344.978 235.205 345.735 232.37 347.761 231.921C349.249 231.639 350.686 232.614 350.968 234.114C351.045 234.461 351.045 234.833 350.968 235.192Z" fill="#B97964"/>
<path d="M366.527 258.344C362.602 257.01 357.227 272.03 354.983 276.699C354.046 278.623 352.558 282.971 351.443 286.396C350.455 289.398 348.095 291.694 345.119 292.54L324.096 298.505L315.553 295.939C314.912 295.747 314.219 295.849 313.668 296.234L309.371 299.159C308.742 299.595 308.357 300.326 308.357 301.096C308.357 302.455 309.473 303.52 310.795 303.417L323.493 302.417C323.493 302.417 343.965 303.61 352.956 298.594C361.935 293.579 373.338 260.678 366.527 258.344Z" fill="#B97964"/>
<path d="M350.159 303.469H277.303C276.2 303.469 275.314 304.354 275.314 305.457C275.314 306.56 276.2 307.445 277.303 307.445H350.159C351.262 307.445 352.147 306.56 352.147 305.457C352.147 304.354 351.262 303.469 350.159 303.469Z" fill="#263238"/>
<path opacity="0.3" d="M350.159 303.469H277.303C276.2 303.469 275.314 304.354 275.314 305.457C275.314 306.56 276.2 307.445 277.303 307.445H350.159C351.262 307.445 352.147 306.56 352.147 305.457C352.147 304.354 351.262 303.469 350.159 303.469Z" fill="white"/>
<path d="M278.38 306.226H303.289C303.944 306.226 304.392 305.585 304.174 304.969L290.514 265.95C290.142 264.873 289.129 264.154 287.987 264.154H263.077C262.423 264.154 261.974 264.796 262.192 265.411L275.853 304.43C276.225 305.508 277.238 306.226 278.38 306.226Z" fill="#263238"/>
<path opacity="0.5" d="M278.38 306.226H303.289C303.944 306.226 304.392 305.585 304.174 304.969L290.514 265.95C290.142 264.873 289.129 264.154 287.987 264.154H263.077C262.423 264.154 261.974 264.796 262.192 265.411L275.853 304.43C276.225 305.508 277.238 306.226 278.38 306.226Z" fill="white"/>
<path d="M277.173 306.226H302.082C302.736 306.226 303.185 305.585 302.967 304.969L289.307 265.95C288.935 264.873 287.922 264.154 286.78 264.154H261.87C261.216 264.154 260.767 264.796 260.985 265.411L274.646 304.43C275.018 305.508 276.044 306.226 277.173 306.226Z" fill="#263238"/>
<path d="M282.638 287.848C283.516 287.546 283.818 286.112 283.313 284.645C282.808 283.178 281.687 282.234 280.81 282.536C279.932 282.838 279.63 284.272 280.135 285.739C280.64 287.206 281.761 288.15 282.638 287.848Z" fill="white"/>
<path opacity="0.2" d="M306.484 307.445C305.381 307.445 304.496 306.56 304.496 305.457C304.496 304.354 305.381 303.469 306.484 303.469H350.159C351.263 303.469 352.148 304.354 352.148 305.457C352.148 306.56 351.263 307.445 350.159 307.445H306.484Z" fill="white"/>
<path d="M523.433 458.018C524.934 458.018 526.139 456.761 526.062 455.261L518.931 316.064H511.389L520.816 455.568C520.906 456.954 522.048 458.018 523.433 458.018Z" fill="#263238"/>
<path opacity="0.5" d="M523.433 458.018C524.934 458.018 526.139 456.761 526.062 455.261L518.931 316.064H511.389L520.816 455.568C520.906 456.954 522.048 458.018 523.433 458.018Z" fill="white"/>
<path opacity="0.2" d="M518.919 316.077H511.377L512.005 325.351H519.394L518.919 316.077Z" fill="black"/>
<path d="M418.014 458.018C416.513 458.018 415.307 456.761 415.384 455.26L422.516 316.064H430.058L420.63 455.568C420.554 456.954 419.399 458.018 418.014 458.018Z" fill="#263238"/>
<path opacity="0.5" d="M418.014 458.018C416.513 458.018 415.307 456.761 415.384 455.26L422.516 316.064H430.058L420.63 455.568C420.554 456.954 419.399 458.018 418.014 458.018Z" fill="white"/>
<path opacity="0.2" d="M422.055 325.351H429.443L430.071 316.077H422.529L422.055 325.351Z" fill="black"/>
<path d="M250.173 458.018C251.674 458.018 252.88 456.761 252.803 455.261L245.671 316.064H238.129L247.557 455.568C247.634 456.954 248.788 458.018 250.173 458.018Z" fill="#263238"/>
<path opacity="0.5" d="M250.173 458.018C251.674 458.018 252.88 456.761 252.803 455.261L245.671 316.064H238.129L247.557 455.568C247.634 456.954 248.788 458.018 250.173 458.018Z" fill="white"/>
<path opacity="0.2" d="M245.659 316.077H238.117L238.746 325.351H246.134L245.659 316.077Z" fill="black"/>
<path d="M144.75 458.018C143.249 458.018 142.044 456.761 142.121 455.26L149.252 316.064H156.795L147.367 455.568C147.277 456.954 146.135 458.018 144.75 458.018Z" fill="#263238"/>
<path opacity="0.5" d="M144.75 458.018C143.249 458.018 142.044 456.761 142.121 455.26L149.252 316.064H156.795L147.367 455.568C147.277 456.954 146.135 458.018 144.75 458.018Z" fill="white"/>
<path opacity="0.2" d="M148.791 325.351H156.179L156.808 316.077H149.266L148.791 325.351Z" fill="black"/>
<path d="M524.987 311.665H141.992V316.077H524.987V311.665Z" fill="#263238"/>
<path opacity="0.3" d="M524.987 311.665H141.992V316.077H524.987V311.665Z" fill="white"/>
<path opacity="0.2" d="M524.989 311.665H415.256V316.077H524.989V311.665Z" fill="black"/>
<path d="M534.851 307.252H132.129V311.665H534.851V307.252Z" fill="#0F34CB"/>
<path opacity="0.3" d="M534.849 307.252H405.389V311.665H534.849V307.252Z" fill="black"/>
<path d="M445.798 307.445H426.66C425.403 307.445 424.377 306.419 424.377 305.162C424.377 303.905 425.403 302.878 426.66 302.878H445.798C447.055 302.878 448.081 303.905 448.081 305.162C448.081 306.419 447.055 307.445 445.798 307.445Z" fill="#0F34CB"/>
<path opacity="0.3" d="M445.798 307.445H426.66C425.403 307.445 424.377 306.419 424.377 305.162C424.377 303.905 425.403 302.878 426.66 302.878H445.798C447.055 302.878 448.081 303.905 448.081 305.162C448.081 306.419 447.055 307.445 445.798 307.445Z" fill="white"/>
<path d="M427.841 307.445H408.703C407.446 307.445 406.42 306.419 406.42 305.162C406.42 303.905 407.446 302.878 408.703 302.878H427.841C429.098 302.878 430.124 303.905 430.124 305.162C430.137 306.419 429.11 307.445 427.841 307.445Z" fill="#0F34CB"/>
<path opacity="0.5" d="M427.841 307.445H408.703C407.446 307.445 406.42 306.419 406.42 305.162C406.42 303.905 407.446 302.878 408.703 302.878H427.841C429.098 302.878 430.124 303.905 430.124 305.162C430.137 306.419 429.11 307.445 427.841 307.445Z" fill="white"/>
<path d="M363.698 237.988H360.016C356.835 237.988 354.475 240.566 354.757 243.747L357.9 279.675C358.182 282.856 360.978 285.434 364.172 285.434H367.853L363.698 237.988Z" fill="#0F34CB"/>
<path d="M363.698 237.988H360.016C356.835 237.988 354.475 240.566 354.757 243.747L357.9 279.675C358.182 282.856 360.978 285.434 364.172 285.434H367.853L363.698 237.988Z" fill="#0F34CB"/>
<path d="M394.831 301.391H390.213L392.227 278.405H396.844L394.831 301.391Z" fill="#263238"/>
<path opacity="0.3" d="M394.831 301.391H390.213L392.227 278.405H396.844L394.831 301.391Z" fill="white"/>
<path d="M426.689 285.434H366.686C363.505 285.434 360.696 282.856 360.414 279.675L357.271 243.747C356.989 240.566 359.349 237.988 362.53 237.988H422.534C425.715 237.988 428.524 240.566 428.806 243.747L431.948 279.675C432.218 282.856 429.87 285.434 426.689 285.434Z" fill="#0F34CB"/>
<path opacity="0.5" d="M426.689 285.434H366.686C363.505 285.434 360.696 282.856 360.414 279.675L357.271 243.747C356.989 240.566 359.349 237.988 362.53 237.988H422.534C425.715 237.988 428.524 240.566 428.806 243.747L431.948 279.675C432.218 282.856 429.87 285.434 426.689 285.434Z" fill="white"/>
<path opacity="0.5" d="M422.74 240.297H362.736C360.838 240.297 359.427 241.836 359.593 243.734L362.736 279.662C362.903 281.56 364.583 283.1 366.481 283.1H426.485C428.383 283.1 429.794 281.56 429.628 279.662L426.485 243.734C426.318 241.849 424.638 240.297 422.74 240.297Z" fill="white"/>
<path d="M381.41 307.445C381.41 300.749 386.836 295.336 393.519 295.336C400.214 295.336 405.627 300.762 405.627 307.445H381.41Z" fill="#0F34CB"/>
<path opacity="0.5" d="M381.41 307.445C381.41 300.749 386.836 295.336 393.519 295.336C400.214 295.336 405.627 300.762 405.627 307.445H381.41Z" fill="white"/>
<path d="M409.205 249.134C408.705 249.134 376.702 249.134 376.202 249.134C375.496 249.134 374.97 249.711 375.035 250.417C375.099 251.122 375.714 251.699 376.433 251.699C376.933 251.699 408.936 251.699 409.436 251.699C410.141 251.699 410.667 251.122 410.603 250.417C410.539 249.711 409.923 249.134 409.205 249.134Z" fill="white"/>
<path d="M405.111 254.508C404.611 254.508 377.175 254.508 376.674 254.508C375.969 254.508 375.443 255.086 375.507 255.791C375.571 256.497 376.187 257.074 376.905 257.074C377.406 257.074 404.842 257.074 405.342 257.074C406.048 257.074 406.574 256.497 406.51 255.791C406.445 255.086 405.817 254.508 405.111 254.508Z" fill="white"/>
<path d="M408.412 259.87C407.912 259.87 377.666 259.87 377.153 259.87C376.447 259.87 375.922 260.447 375.986 261.153C376.05 261.858 376.666 262.435 377.384 262.435C377.884 262.435 408.13 262.435 408.643 262.435C409.348 262.435 409.874 261.858 409.81 261.153C409.733 260.447 409.117 259.87 408.412 259.87Z" fill="white"/>
<path d="M404.304 265.245C403.804 265.245 378.112 265.245 377.612 265.245C376.907 265.245 376.381 265.822 376.445 266.527C376.509 267.233 377.125 267.81 377.843 267.81C378.343 267.81 404.035 267.81 404.535 267.81C405.241 267.81 405.767 267.233 405.703 266.527C405.638 265.822 405.01 265.245 404.304 265.245Z" fill="white"/>
<g opacity="0.6">
<path d="M409.205 249.134C408.705 249.134 376.702 249.134 376.202 249.134C375.496 249.134 374.97 249.711 375.035 250.417C375.099 251.122 375.714 251.699 376.433 251.699C376.933 251.699 408.936 251.699 409.436 251.699C410.141 251.699 410.667 251.122 410.603 250.417C410.539 249.711 409.923 249.134 409.205 249.134Z" fill="white"/>
<path d="M405.111 254.508C404.611 254.508 377.175 254.508 376.674 254.508C375.969 254.508 375.443 255.086 375.507 255.791C375.571 256.497 376.187 257.074 376.905 257.074C377.406 257.074 404.842 257.074 405.342 257.074C406.048 257.074 406.574 256.497 406.51 255.791C406.445 255.086 405.817 254.508 405.111 254.508Z" fill="white"/>
<path d="M408.412 259.87C407.912 259.87 377.666 259.87 377.153 259.87C376.447 259.87 375.922 260.447 375.986 261.153C376.05 261.858 376.666 262.435 377.384 262.435C377.884 262.435 408.13 262.435 408.643 262.435C409.348 262.435 409.874 261.858 409.81 261.153C409.733 260.447 409.117 259.87 408.412 259.87Z" fill="white"/>
<path d="M404.304 265.245C403.804 265.245 378.112 265.245 377.612 265.245C376.907 265.245 376.381 265.822 376.445 266.527C376.509 267.233 377.125 267.81 377.843 267.81C378.343 267.81 404.035 267.81 404.535 267.81C405.241 267.81 405.767 267.233 405.703 266.527C405.638 265.822 405.01 265.245 404.304 265.245Z" fill="white"/>
</g>
<path d="M476.21 219.03C476.21 219.03 468.617 220.479 468.758 215.836C468.886 211.193 476.723 213.373 476.723 213.373L476.21 219.03Z" fill="#1A2E35"/>
<path opacity="0.4" d="M476.21 219.03C476.21 219.03 468.617 220.479 468.758 215.836C468.886 211.193 476.723 213.373 476.723 213.373L476.21 219.03Z" fill="black"/>
<path d="M471.464 230.112L467.988 235.564C467.988 235.564 469.797 236.898 472.337 235.987L471.464 230.112Z" fill="#A24E3F"/>
<path d="M469.362 229.355C469.349 230.061 469.708 230.638 470.17 230.638C470.632 230.638 471.042 230.048 471.029 229.368C471.016 228.688 470.683 228.086 470.221 228.086C469.759 228.086 469.387 228.65 469.362 229.355Z" fill="#1A2E35"/>
<path d="M496.539 224.956C496.847 234.319 497.181 238.283 492.935 243.503C486.214 249.044 474.965 249.699 471.861 240.617C469.064 232.447 469.026 218.542 477.799 213.925C484.046 210.628 491.781 213.027 495.077 219.286C496.001 221.018 496.501 222.968 496.539 224.956Z" fill="#B97964"/>
<path opacity="0.2" d="M483.395 247.493L483.331 247.031C483.177 246.018 482.176 245.363 481.188 245.633L477.379 246.672C479.213 247.441 481.278 247.685 483.395 247.493Z" fill="black"/>
<path d="M471.901 226.162C471.772 226.174 471.657 226.123 471.567 226.033C470.99 225.302 470.092 224.892 469.156 224.943C468.95 224.969 468.771 224.828 468.745 224.622C468.72 224.417 468.861 224.238 469.066 224.212C470.246 224.122 471.388 224.622 472.131 225.546C472.26 225.7 472.247 225.931 472.093 226.072C472.042 226.123 471.978 226.149 471.901 226.162Z" fill="#1A2E35"/>
<path d="M483.047 245.119L485.099 259.024L496.707 256.625L492.988 242.387L483.047 245.119Z" fill="#B97964"/>
<path d="M478.376 231.651L476.349 233.216C476.349 233.216 474.861 227.662 477.093 222.506L474.759 218.953L475.118 216.554C475.118 216.554 471.488 210.68 474.323 208.935C477.144 207.191 478.966 210.821 478.966 210.821C478.966 210.821 480.928 205.023 484.327 205.818C487.739 206.613 485.995 210.243 485.995 210.243C485.995 210.243 491.51 206.254 494.114 208.217C496.731 210.179 493.46 212.924 493.46 212.924C493.46 212.924 500.053 213.065 500.271 215.682C500.489 218.299 497.59 218.504 497.59 218.504C497.59 218.504 501.939 220.03 501.874 222.352C501.797 224.674 498.398 224.815 498.398 224.815C498.398 224.815 502.824 227.624 501.874 230.099C500.925 232.575 498.462 231.78 498.462 231.78C498.462 231.78 500.758 234.717 499.989 236.307C499.219 237.898 497.282 237.706 497.282 237.706L493.511 244.401C493.511 244.401 490.343 243.17 487.624 245.568L480.851 234.422L478.376 231.651Z" fill="#1A2E35"/>
<path d="M477.211 229.125C476.877 231.01 477.3 232.947 478.404 234.512C479.879 236.577 482.226 235.653 483.162 233.447C484.009 231.446 484.253 227.983 482.123 226.687C479.981 225.405 477.647 226.829 477.211 229.125Z" fill="#B97964"/>
<path d="M499.054 255.112L496.758 248.609C496.758 248.609 487.856 244.684 479.006 251.2L485.522 255.099H499.054V255.112Z" fill="#263238"/>
<path opacity="0.2" d="M497.99 252.11C491.307 250.481 485.509 251.905 482.213 253.124L485.522 255.099H499.054L497.99 252.11Z" fill="black"/>
<path d="M458.457 297.889L449.902 293.592C449.414 293.348 448.837 293.323 448.324 293.528L441.308 296.324C440.615 296.606 440.141 297.26 440.102 298.004L439.974 300.275C439.897 301.647 441.231 302.648 442.526 302.211L445.13 301.314C445.13 301.314 450.646 304.02 458.085 301.698L458.457 297.889Z" fill="#B97964"/>
<path d="M425.916 298.389L417.361 294.041C416.873 293.797 416.296 293.772 415.783 293.977L408.767 296.812C408.074 297.094 407.6 297.761 407.561 298.505L407.433 300.801C407.356 302.186 408.69 303.212 409.985 302.763L412.589 301.865C412.589 301.865 418.105 304.597 425.544 302.25L425.916 298.389Z" fill="#B97964"/>
<path d="M503.748 257.549C499.554 261.127 489.062 271.581 475.44 296.093H458.034C458.034 296.093 455.571 298.107 456.584 303.148C456.584 303.148 474.439 309.497 479.288 307.317C484.136 305.136 499.798 281.137 506.84 272.569C509.277 269.606 513.471 265.642 507.417 257.933C506.519 256.792 504.852 256.612 503.748 257.549Z" fill="#263238"/>
<path opacity="0.2" d="M484.304 291.95L480.122 288.012C478.609 290.526 477.044 293.207 475.441 296.106H471.221L473.863 307.612C476.146 307.881 478.109 307.855 479.289 307.329C480.559 306.752 482.585 304.674 484.997 301.763L484.304 291.95Z" fill="black"/>
<path d="M481.148 425.041L485.125 444.306L492.962 443.139L491.076 424.386L481.148 425.041Z" fill="#B97964"/>
<path opacity="0.2" d="M492.321 436.739L491.076 424.386L481.148 425.041L483.624 437.085L492.321 436.739Z" fill="black"/>
<path d="M527.685 336.215C527.685 336.215 531.661 357.097 518.039 357.097C504.405 357.097 486.28 361.548 486.28 361.548C486.28 361.548 491.501 366.512 492.655 429.697L481.342 430.184C481.342 430.184 462.551 358.855 466.258 351.017C471.478 339.974 498.517 336.203 498.517 336.203H527.685V336.215Z" fill="#0F34CB"/>
<path d="M480.096 427.965L493.153 427.58L493.833 433.955L480.929 434.507L480.096 427.965Z" fill="#0F34CB"/>
<path opacity="0.5" d="M480.096 427.965L493.153 427.58L493.833 433.955L480.929 434.507L480.096 427.965Z" fill="white"/>
<path d="M481.597 445.512C480.584 445.64 479.506 445.576 479.121 445.179C478.916 444.948 478.878 444.602 479.032 444.332C479.147 444.088 479.339 443.909 479.583 443.806C480.904 443.268 483.944 444.55 484.085 444.614C484.162 444.653 484.214 444.717 484.201 444.807C484.201 444.884 484.137 444.961 484.06 444.986C483.252 445.23 482.431 445.41 481.597 445.512ZM480.096 444.076C479.968 444.088 479.852 444.114 479.737 444.165C479.583 444.217 479.455 444.332 479.391 444.486C479.275 444.743 479.339 444.858 479.404 444.909C479.852 445.397 481.905 445.166 483.406 444.794C482.354 444.358 481.238 444.114 480.096 444.076Z" fill="#0F34CB"/>
<path d="M484.035 444.986C484.01 444.999 483.984 444.999 483.958 444.986C482.932 444.666 480.752 443.139 480.816 442.19C480.803 441.972 480.944 441.677 481.47 441.561C481.855 441.472 482.252 441.549 482.586 441.767C483.728 442.498 484.215 444.678 484.241 444.781C484.253 444.845 484.228 444.922 484.176 444.961C484.125 444.986 484.074 444.986 484.035 444.986ZM481.637 441.921H481.521C481.175 441.998 481.175 442.139 481.162 442.19C481.175 442.754 482.637 443.986 483.715 444.46C483.509 443.55 483.022 442.716 482.329 442.087C482.124 441.946 481.88 441.882 481.637 441.921Z" fill="#0F34CB"/>
<path d="M484.753 443.742L493.668 442.677C494.001 442.639 494.322 442.831 494.437 443.152L496.926 450.207C497.157 450.835 496.823 451.515 496.207 451.746C496.13 451.772 496.041 451.797 495.964 451.81C492.744 452.144 489.858 452.31 485.856 452.798C481.136 453.362 482.406 453.785 476.852 454.529C473.517 454.978 472.439 451.246 473.837 450.887C480.225 449.296 480.674 447.244 482.893 444.627C483.393 444.114 484.048 443.793 484.753 443.742Z" fill="#263238"/>
<path opacity="0.1" d="M489.91 353.583H470.042L465.783 355.353C465.886 359.522 466.822 365.948 468.195 373.336L488.217 367.564C487.114 362.369 486.255 361.561 486.255 361.561C486.255 361.561 488.076 361.112 490.988 360.509L489.91 353.583Z" fill="black"/>
<path opacity="0.1" d="M503.402 355.032C503.402 355.032 503.03 356.584 502.979 358.367C507.494 357.713 512.355 357.2 516.819 357.11C521.988 350.889 517.46 345.463 517.46 345.463L509.482 349.093L503.402 355.032Z" fill="black"/>
<path d="M458.199 430.197L465.587 448.154L472.796 446.718L467.845 427.503L458.199 430.197Z" fill="#B97964"/>
<path opacity="0.2" d="M471.141 440.317L467.845 427.503L458.199 430.197L463.009 441.869L471.141 440.317Z" fill="black"/>
<path d="M517.909 337.37C517.909 337.37 521.885 358.251 508.263 358.251C494.628 358.251 453.736 370.835 453.736 370.835C453.736 370.835 459.752 373.054 470.193 431.351L458.38 434.032C458.38 434.032 428.865 370.463 432.572 362.625C437.793 351.582 488.753 337.37 488.753 337.37H517.909Z" fill="#0F34CB"/>
<path d="M456.926 433.275L470.945 430.286L472.395 436.084L458.952 439.175L456.926 433.275Z" fill="#0F34CB"/>
<path opacity="0.5" d="M456.926 433.275L470.945 430.286L472.395 436.084L458.952 439.175L456.926 433.275Z" fill="white"/>
<path d="M461.138 448.975C460.125 449.104 459.047 449.039 458.662 448.642C458.457 448.411 458.419 448.065 458.573 447.795C458.688 447.552 458.88 447.372 459.124 447.269C460.445 446.731 463.485 448.013 463.626 448.077C463.703 448.103 463.755 448.18 463.742 448.27C463.742 448.347 463.678 448.424 463.601 448.449C462.805 448.693 461.984 448.873 461.138 448.975ZM459.65 447.552C459.522 447.564 459.406 447.59 459.291 447.641C459.137 447.693 459.009 447.808 458.945 447.962C458.829 448.219 458.893 448.334 458.957 448.385C459.406 448.873 461.459 448.642 462.959 448.27C461.908 447.821 460.792 447.577 459.65 447.552Z" fill="#0F34CB"/>
<path d="M463.59 448.449C463.564 448.462 463.539 448.462 463.513 448.449C462.487 448.129 460.306 446.602 460.371 445.653C460.358 445.435 460.499 445.14 461.025 445.025C461.41 444.935 461.807 445.012 462.141 445.23C463.282 445.961 463.77 448.141 463.795 448.244C463.808 448.308 463.782 448.385 463.731 448.424C463.68 448.449 463.629 448.462 463.59 448.449ZM461.191 445.384H461.076C460.73 445.461 460.73 445.602 460.717 445.653C460.73 446.217 462.192 447.449 463.269 447.923C463.064 447.013 462.577 446.179 461.884 445.55C461.679 445.409 461.435 445.345 461.191 445.384Z" fill="#0F34CB"/>
<path d="M464.308 447.205L473.222 446.141C473.556 446.102 473.876 446.295 473.992 446.615L476.48 453.67C476.711 454.298 476.378 454.978 475.762 455.209C475.685 455.235 475.595 455.26 475.518 455.273C472.299 455.607 469.413 455.773 465.411 456.261C460.691 456.825 461.96 457.249 456.406 457.993C453.071 458.441 451.994 454.709 453.392 454.35C459.78 452.759 460.229 450.707 462.448 448.09C462.948 447.577 463.602 447.257 464.308 447.205Z" fill="#263238"/>
<path d="M469.58 256.805C469.567 255.099 470.953 253.713 472.659 253.739L498.941 254.252C505.341 254.38 511.177 257.921 514.307 263.513C520.387 274.39 528.352 296.645 528.224 338.537H484.575C484.562 338.537 469.837 284.164 469.58 256.805Z" fill="#263238"/>
<path opacity="0.4" d="M470.221 267.374C470.849 273.672 471.888 280.611 473.132 287.627C479.738 273.787 476.185 262.474 476.185 262.474L470.221 267.374Z" fill="black"/>
<path d="M469.668 254.906C466.59 258.485 461.844 265.642 447.427 291.873L425.378 296.568C425.378 296.568 422.915 298.594 423.928 303.699C423.928 303.699 447.594 307.778 452.442 305.572C457.291 303.366 469.668 284.754 475.351 275.121C477.698 271.145 478.955 263.308 471.888 254.919C471.31 254.239 470.258 254.227 469.668 254.906Z" fill="#263238"/>
<path d="M546.434 457.723L514.098 445.82L481.415 457.736C480.287 458.147 479.094 457.313 479.094 456.107C479.094 455.427 479.479 454.825 480.094 454.542L514.098 438.766L547.755 454.542C548.358 454.825 548.756 455.44 548.756 456.107C548.756 457.3 547.563 458.134 546.434 457.723Z" fill="#263238"/>
<path opacity="0.3" d="M546.434 457.723L514.098 445.82L481.415 457.736C480.287 458.147 479.094 457.313 479.094 456.107C479.094 455.427 479.479 454.825 480.094 454.542L514.098 438.766L547.755 454.542C548.358 454.825 548.756 455.44 548.756 456.107C548.756 457.3 547.563 458.134 546.434 457.723Z" fill="white"/>
<path opacity="0.2" d="M506.479 448.591L514.098 445.82L521.37 448.501V442.165L514.098 438.766L506.479 442.293V448.591Z" fill="black"/>
<path d="M513.931 458.006C512.456 458.006 511.212 456.877 511.071 455.402L510.16 445.82V366.268H517.702V445.82L516.792 455.402C516.638 456.877 515.406 458.006 513.931 458.006Z" fill="#263238"/>
<path opacity="0.3" d="M513.931 458.006C512.456 458.006 511.212 456.877 511.071 455.402L510.16 445.82V366.268H517.702V445.82L516.792 455.402C516.638 456.877 515.406 458.006 513.931 458.006Z" fill="white"/>
<path opacity="0.2" d="M517.702 366.268H510.16V375.529H517.702V366.268Z" fill="black"/>
<path d="M566.381 359.034C557.851 356.854 549.078 355.661 540.291 355.443C531.236 355.212 497.322 355.404 489.267 355.404C479.467 355.404 469.667 356.61 460.15 359.034C454.172 360.561 456.02 369.193 461.42 369.283C461.894 369.296 564.406 369.257 564.791 369.283C570.421 369.539 572.487 360.586 566.381 359.034Z" fill="#0F34CB"/>
<path opacity="0.3" d="M566.381 359.034C557.851 356.854 549.078 355.661 540.291 355.443C531.236 355.212 497.322 355.404 489.267 355.404C479.467 355.404 469.667 356.61 460.15 359.034C454.172 360.561 456.02 369.193 461.42 369.283C461.894 369.296 564.406 369.257 564.791 369.283C570.421 369.539 572.487 360.586 566.381 359.034Z" fill="black"/>
<path d="M462.922 369.103C480.148 364.716 498.388 364.716 515.601 369.103C522.117 370.771 524.888 360.702 518.372 359.034C499.35 354.186 479.16 354.186 460.138 359.034C453.648 360.689 456.406 370.758 462.922 369.103Z" fill="#0F34CB"/>
<g opacity="0.3">
<path d="M462.922 369.103C480.148 364.716 498.388 364.716 515.601 369.103C522.117 370.771 524.888 360.702 518.372 359.034C499.35 354.186 479.16 354.186 460.138 359.034C453.648 360.689 456.406 370.758 462.922 369.103Z" fill="white"/>
</g>
<path d="M538.957 284.318C537.88 284.293 536.789 284.78 536.071 285.986C522.257 308.958 517.357 336.562 522.115 362.908C522.41 364.562 523.539 365.332 524.796 365.409C526.887 365.55 564.11 365.422 565.457 365.422C567.484 365.422 569.716 363.69 569.241 361.061C564.816 336.587 569.69 310.793 582.491 289.5C584.082 286.858 581.734 284.37 579.361 284.331C578.297 284.293 541.33 284.357 538.957 284.318Z" fill="#0F34CB"/>
<path opacity="0.2" d="M538.957 284.318C537.88 284.293 536.789 284.78 536.071 285.986C522.257 308.958 517.357 336.562 522.115 362.908C522.41 364.562 523.539 365.332 524.796 365.409C526.887 365.55 564.11 365.422 565.457 365.422C567.484 365.422 569.716 363.69 569.241 361.061C564.816 336.587 569.69 310.793 582.491 289.5C584.082 286.858 581.734 284.37 579.361 284.331C578.297 284.293 541.33 284.357 538.957 284.318Z" fill="black"/>
<path d="M528.839 361.048C524.413 336.575 529.288 310.78 542.089 289.487C544.398 285.639 538.382 282.138 536.073 285.973C522.258 308.946 517.359 336.549 522.117 362.895C522.925 367.295 529.634 365.435 528.839 361.048Z" fill="#0F34CB"/>
<g opacity="0.2">
<path d="M528.839 361.048C524.413 336.575 529.288 310.78 542.089 289.487C544.398 285.639 538.382 282.138 536.073 285.973C522.258 308.946 517.359 336.549 522.117 362.895C522.925 367.295 529.634 365.435 528.839 361.048Z" fill="white"/>
</g>
</g>
<defs>
<clipPath id="clip0_1858_2327">
<rect width="641.339" height="473" fill="white" transform="translate(0.541016)"/>
</clipPath>
</defs>
</svg>
