<svg width="96" height="96" viewBox="0 0 96 96" fill="none" xmlns="http://www.w3.org/2000/svg">
<rect width="96" height="96" rx="4" fill="#EAF7E9"/>
<path opacity="0.2" d="M32.513 57.1875C30.2797 53.4195 29.4985 48.9659 30.3161 44.6628C31.1337 40.3597 33.4939 36.5029 36.9535 33.8166C40.4132 31.1303 44.7344 29.7992 49.106 30.0732C53.4775 30.3472 57.5987 32.2074 60.696 35.3046C63.7932 38.4018 65.6534 42.523 65.9273 46.8946C66.2013 51.2661 64.8702 55.5873 62.1839 59.047C59.4976 62.5067 55.6409 64.8668 51.3377 65.6844C47.0346 66.5021 42.581 65.7209 38.813 63.4875L32.588 65.25C32.333 65.3246 32.0626 65.3292 31.8051 65.2634C31.5477 65.1975 31.3127 65.0636 31.1248 64.8757C30.9369 64.6878 30.803 64.4529 30.7372 64.1954C30.6713 63.938 30.6759 63.6676 30.7505 63.4125L32.513 57.1875Z" fill="#2DB324"/>
<path d="M32.513 57.1875C30.2797 53.4195 29.4985 48.9659 30.3161 44.6628C31.1337 40.3597 33.4939 36.5029 36.9535 33.8166C40.4132 31.1303 44.7344 29.7992 49.106 30.0732C53.4775 30.3472 57.5987 32.2074 60.696 35.3046C63.7932 38.4018 65.6534 42.523 65.9273 46.8946C66.2013 51.2661 64.8702 55.5873 62.1839 59.047C59.4976 62.5067 55.6409 64.8668 51.3377 65.6844C47.0346 66.5021 42.581 65.7209 38.813 63.4875L32.588 65.25C32.333 65.3246 32.0626 65.3292 31.8051 65.2634C31.5477 65.1975 31.3127 65.0636 31.1248 64.8757C30.9369 64.6878 30.803 64.4529 30.7372 64.1954C30.6713 63.938 30.6759 63.6676 30.7505 63.4125L32.513 57.1875Z" stroke="#2DB324" stroke-width="3" stroke-linecap="round" stroke-linejoin="round"/>
<path d="M48 50.25C49.2426 50.25 50.25 49.2426 50.25 48C50.25 46.7574 49.2426 45.75 48 45.75C46.7574 45.75 45.75 46.7574 45.75 48C45.75 49.2426 46.7574 50.25 48 50.25Z" fill="#2DB324"/>
<path d="M39 50.25C40.2426 50.25 41.25 49.2426 41.25 48C41.25 46.7574 40.2426 45.75 39 45.75C37.7574 45.75 36.75 46.7574 36.75 48C36.75 49.2426 37.7574 50.25 39 50.25Z" fill="#2DB324"/>
<path d="M57 50.25C58.2426 50.25 59.25 49.2426 59.25 48C59.25 46.7574 58.2426 45.75 57 45.75C55.7574 45.75 54.75 46.7574 54.75 48C54.75 49.2426 55.7574 50.25 57 50.25Z" fill="#2DB324"/>
</svg>
